HIERARCHY
ROOT Hips
{
	OFFSET	0.00	0.00	0.00
	CHANNELS 6 Xposition Yposition Zposition Zrotation Xrotation Yrotation
	JOINT LeftUpLeg
	{
		OFFSET	 0.126116	-0.014019	-0.065224
		CHANNELS 3 Zrotation Xrotation Yrotation
		JOINT LeftLeg
		{
			OFFSET	 0.000000	 0.000000	 0.569914
			CHANNELS 3 Zrotation Xrotation Yrotation
			JOINT LeftFoot
			{
				OFFSET	 0.000000	 0.000000	 0.544423
				CHANNELS 3 Zrotation Xrotation Yrotation
				JOINT LeftToeBase
				{
					OFFSET	 0.000000	 0.000000	 0.207117
					CHANNELS 3 Zrotation Xrotation Yrotation
					End Site
					{
						OFFSET	 0.000000	 0.000000	 0.207117
					}
				}
			}
		}
	}
	JOINT RightUpLeg
	{
		OFFSET	-0.124023	-0.008373	-0.065224
		CHANNELS 3 Zrotation Xrotation Yrotation
		JOINT RightLeg
		{
			OFFSET	 0.000000	 0.000000	 0.570047
			CHANNELS 3 Zrotation Xrotation Yrotation
			JOINT RightFoot
			{
				OFFSET	 0.000000	 0.000000	 0.544354
				CHANNELS 3 Zrotation Xrotation Yrotation
				JOINT RightToeBase
				{
					OFFSET	 0.000000	 0.000000	 0.207540
					CHANNELS 3 Zrotation Xrotation Yrotation
					End Site
					{
						OFFSET	 0.000000	 0.000000	 0.207540
					}
				}
			}
		}
	}
	JOINT Spine
	{
		OFFSET	 0.000184	-0.007763	 0.117403
		CHANNELS 3 Zrotation Xrotation Yrotation
		JOINT Spine1
		{
			OFFSET	 0.000000	 0.000000	 0.137269
			CHANNELS 3 Zrotation Xrotation Yrotation
			JOINT Spine2
			{
				OFFSET	 0.000000	 0.000000	 0.156879
				CHANNELS 3 Zrotation Xrotation Yrotation
				JOINT LeftShoulder
				{
					OFFSET	 0.080501	-0.002496	 0.160144
					CHANNELS 3 Zrotation Xrotation Yrotation
					JOINT LeftArm
					{
						OFFSET	 0.000000	 0.000000	 0.164363
						CHANNELS 3 Zrotation Xrotation Yrotation
						JOINT LeftForeArm
						{
							OFFSET	 0.000000	 0.000000	 0.364576
							CHANNELS 3 Zrotation Xrotation Yrotation
							JOINT LeftHand
							{
								OFFSET	 0.000000	 0.000000	 0.360812
								CHANNELS 3 Zrotation Xrotation Yrotation
								JOINT LeftHandIndex1
								{
									OFFSET	 0.000000	 0.000000	 0.086006
									CHANNELS 3 Zrotation Xrotation Yrotation
									JOINT LeftHandIndex2
									{
										OFFSET	 0.000000	 0.000000	 0.047236
										CHANNELS 3 Zrotation Xrotation Yrotation
										JOINT LeftHandIndex3
										{
											OFFSET	-0.004284	-0.000551	 0.038166
											CHANNELS 3 Zrotation Xrotation Yrotation
											End Site
											{
												OFFSET	-0.004284	-0.000551	 0.038166
											}
										}
									}
								}
							}
						}
					}
				}
				JOINT Neck
				{
					OFFSET	 0.000000	 0.000000	 0.176489
					CHANNELS 3 Zrotation Xrotation Yrotation
					JOINT Head
					{
						OFFSET	 0.000000	-0.001747	 0.077940
						CHANNELS 3 Zrotation Xrotation Yrotation
						End Site
						{
							OFFSET	 0.000000	-0.001747	 0.077940
						}
					}
				}
				JOINT RightShoulder
				{
					OFFSET	-0.080363	 0.000306	 0.159706
					CHANNELS 3 Zrotation Xrotation Yrotation
					JOINT RightArm
					{
						OFFSET	 0.000000	 0.000000	 0.164196
						CHANNELS 3 Zrotation Xrotation Yrotation
						JOINT RightForeArm
						{
							OFFSET	 0.000000	 0.000000	 0.365611
							CHANNELS 3 Zrotation Xrotation Yrotation
							JOINT RightHand
							{
								OFFSET	 0.000000	 0.000000	 0.360648
								CHANNELS 3 Zrotation Xrotation Yrotation
								JOINT RightHandIndex1
								{
									OFFSET	 0.000000	 0.000000	 0.069977
									CHANNELS 3 Zrotation Xrotation Yrotation
									JOINT RightHandIndex2
									{
										OFFSET	 0.000000	 0.000000	 0.052305
										CHANNELS 3 Zrotation Xrotation Yrotation
										JOINT RightHandIndex3
										{
											OFFSET	 0.009002	-0.000782	 0.042196
											CHANNELS 3 Zrotation Xrotation Yrotation
											End Site
											{
												OFFSET	 0.009002	-0.000782	 0.042196
											}
										}
									}
								}
							}
						}
					}
				}
			}
		}
	}
}
MOTION
Frames:    13
Frame Time: 0.03333334
-3.537615	-20.000550	 1.046490	-22.162950	 9.412463	 3.091465	 5.590102	-20.581020	 175.430200	-4.292046	-36.359740	-1.035367	-1.200305	 83.527850	-0.517483	-2.332489	 36.595090	-0.187848	-1.947243	-22.547960	-178.942400	-2.016413	-40.382420	-0.943123	-1.524873	 86.906990	 0.761551	 2.393460	 26.135760	-0.048039	-6.890730	 5.451966	-1.437247	-11.370100	 3.953768	-2.051025	-13.921100	 1.280000	-0.769364	-101.496100	 88.592920	-167.590800	 54.498360	 68.123470	-64.388280	-4.878087	-4.299728	-17.705960	 7.638021	-5.117578	-5.324144	-2.041068	-11.211420	 7.071073	-5.213516	-0.193813	 3.566525	-1.378229	 35.397820	-2.634230	 0.725942	 1.339686	 0.646232	-3.177042	 2.413814	 0.587820	 96.609350	 87.898670	 170.237200	-50.904890	 75.736630	 64.276120	-2.109392	-12.747650	 23.249820	-25.452130	-6.022812	 9.603306	-7.419656	-4.215825	-37.083020	 5.070815	-0.697434	-9.399699	-2.350882	 35.473990	 5.254307
-3.538894	-20.001840	 1.046359	-22.129050	 9.235529	 3.040445	 5.521649	-20.389140	 175.404700	-4.325958	-36.455880	-1.101852	-1.242847	 83.604780	-0.561867	-2.330412	 36.825420	-0.193583	-1.825197	-22.160310	-178.959800	-1.981979	-39.972390	-0.853749	-1.522326	 86.617770	 0.849099	 2.394498	 25.824650	-0.054569	-6.927703	 5.542041	-1.423478	-11.381680	 4.153512	-2.022785	-13.879300	 1.474353	-0.743441	-101.310700	 88.600440	-167.843200	 54.001350	 68.248760	-63.773370	-4.833868	-4.267241	-17.310090	 7.796913	-5.127858	-5.319489	-2.509162	-11.447650	 5.964377	-5.213516	-0.193813	 3.566525	-1.378229	 35.397820	-2.634230	 0.762092	 1.423775	 0.680024	-3.117079	 2.595239	 0.672143	 96.691410	 87.917760	 170.153100	-51.497750	 75.668950	 64.788600	-2.264326	-12.706850	 23.178520	-25.475360	-6.023388	 9.602271	-7.384393	-4.245377	-36.970270	 5.070815	-0.697434	-9.399699	-2.350882	 35.473990	 5.254307
-3.542953	-20.005330	 1.045782	-21.773920	 8.960005	 2.875733	 5.357177	-20.011710	 175.366100	-4.247379	-36.489740	-1.153331	-1.329728	 83.775530	-0.550441	-2.326463	 37.253370	-0.204313	-1.727615	-20.694900	-178.973200	-1.608523	-38.199690	-0.581242	-1.309681	 86.421170	 0.973367	 2.393994	 25.976820	-0.051375	-7.108556	 5.498180	-1.419449	-11.508760	 4.614688	-1.959751	-13.838290	 1.992535	-0.678478	-100.679400	 88.615620	-168.676000	 53.180060	 68.603360	-62.726570	-4.767837	-4.210978	-16.493860	 8.194782	-5.153309	-5.306760	-3.514100	-11.855050	 3.617937	-5.213516	-0.193813	 3.566525	-1.378229	 35.397820	-2.634230	 0.755500	 1.627937	 0.797956	-2.996345	 3.170727	 0.666952	 96.991080	 87.982970	 169.842500	-52.407960	 75.663750	 65.323740	-2.506440	-12.626510	 23.065440	-25.511450	-6.024209	 9.600780	-7.281356	-4.217155	-36.727330	 5.070815	-0.697434	-9.399699	-2.350882	 35.473990	 5.254307
-3.547596	-20.008390	 1.045680	-21.334670	 8.869332	 2.758956	 5.136413	-19.658600	 175.299500	-4.081858	-36.336070	-1.174343	-1.402170	 83.768820	-0.520230	-2.323202	 37.597120	-0.212999	-1.954782	-19.350230	-179.145400	-1.105555	-36.286330	-0.442684	-1.410808	 86.484920	 1.299109	 2.390580	 26.939650	-0.031055	-7.273146	 5.360893	-1.533972	-11.623640	 5.019702	-1.901373	-13.811650	 2.516334	-0.613805	-99.759640	 88.570290	-169.762700	 52.693570	 69.055580	-62.231060	-4.875276	-4.178452	-15.860490	 8.595396	-5.170291	-5.297328	-3.309860	-11.952730	 4.088779	-5.213516	-0.193813	 3.566525	-1.378229	 35.397820	-2.634230	 0.727824	 1.816565	 0.960238	-2.911930	 3.795652	 0.606293	 97.538770	 88.099470	 169.290500	-52.928210	 75.757430	 65.351880	-2.650059	-12.545640	 22.987420	-25.522630	-6.024655	 9.600457	-7.171480	-4.103539	-36.530330	 5.070815	-0.697434	-9.399699	-2.350882	 35.473990	 5.254307
-3.551316	-20.009970	 1.045880	-21.274100	 8.847444	 3.034099	 4.959516	-19.378080	 174.880900	-4.056327	-36.057810	-1.268533	-1.464319	 83.577710	-0.607982	-2.322214	 37.699690	-0.215604	-2.247118	-18.713300	-179.602600	-1.134366	-35.224430	-0.663592	-1.677346	 86.369610	 1.269539	 2.394954	 25.681980	-0.057551	-7.240048	 5.366490	-2.000134	-11.531820	 5.276513	-1.951274	-13.731290	 2.853095	-0.569682	-98.875430	 88.433770	-170.672800	 52.468200	 69.604190	-62.288890	-5.205441	-4.206848	-15.572500	 8.990120	-5.180820	-5.289117	-3.252933	-12.002000	 4.219263	-5.213516	-0.193813	 3.566525	-1.378229	 35.397820	-2.634230	 0.794702	 1.996673	 1.101034	-2.893530	 4.110565	 0.724007	 98.284580	 88.261790	 168.587700	-53.239600	 75.833580	 65.306730	-2.709396	-12.464940	 22.934530	-25.508060	-6.025089	 9.600098	-7.090408	-3.954172	-36.433540	 5.070815	-0.697434	-9.399699	-2.350882	 35.473990	 5.254307
-3.554456	-20.011330	 1.046250	-21.783030	 8.889034	 3.309919	 4.906735	-19.098190	 174.729700	-4.266668	-35.629120	-1.407590	-1.506315	 83.305580	-0.798316	-2.322881	 37.631120	-0.213854	-2.432124	-18.411300	-179.871600	-1.589883	-34.644880	-1.045745	-2.192681	 86.086280	 1.222424	 2.397706	 24.767070	-0.076594	-6.977296	 5.304711	-2.307755	-11.233750	 5.526448	-1.991941	-13.578910	 3.193316	-0.522807	-98.769560	 88.371770	-170.710400	 52.211010	 70.239410	-62.082210	-5.936559	-4.211884	-15.750560	 8.983727	-5.175576	-5.290831	-3.659171	-12.504970	 3.278309	-5.213516	-0.193813	 3.566525	-1.378229	 35.397820	-2.634230	 0.952645	 2.223386	 1.137873	-2.907320	 4.230036	 0.731813	 98.277760	 88.327660	 168.724400	-53.288100	 75.853720	 65.146100	-2.796229	-12.401670	 22.867700	-25.559350	-6.026340	 9.598169	-7.022372	-3.790120	-36.381100	 5.070815	-0.697434	-9.399699	-2.350882	 35.473990	 5.254307
-3.557062	-20.012160	 1.046765	-22.480880	 8.898433	 2.968056	 5.026401	-18.598320	 175.034100	-4.601409	-35.048170	-1.488187	-1.553612	 83.032800	-0.924640	-2.324278	 37.484410	-0.210145	-2.466813	-18.525930	-179.560900	-1.892785	-34.451980	-1.215210	-2.543760	 86.051810	 1.325520	 2.397404	 24.872090	-0.074413	-6.669345	 5.279283	-1.855419	-10.940100	 5.802571	-1.785643	-13.393460	 3.616026	-0.465945	-99.191070	 88.413540	-170.223800	 52.850060	 70.316610	-62.453840	-6.776095	-4.109325	-16.664310	 8.130508	-5.153383	-5.307730	-3.886070	-13.030050	 2.760203	-5.213516	-0.193813	 3.566525	-1.378229	 35.397820	-2.634230	 1.076604	 2.244954	 1.022919	-2.886683	 4.491249	 0.493070	 97.691600	 88.279560	 169.413800	-53.005850	 75.798860	 64.834500	-2.928675	-12.357740	 22.774340	-25.693850	-6.027761	 9.595292	-6.975842	-3.661807	-36.357290	 5.070815	-0.697434	-9.399699	-2.350882	 35.473990	 5.254307
-3.559149	-20.012420	 1.047495	-22.805950	 8.878540	 2.608119	 5.114084	-18.117820	 175.337500	-4.750411	-34.437800	-1.472344	-1.625146	 82.881610	-0.897924	-2.325941	 37.309170	-0.205715	-2.466362	-18.619190	-179.321900	-1.912076	-34.523220	-1.209803	-2.654138	 86.052410	 1.447992	 2.396640	 25.134140	-0.068974	-6.554067	 5.460051	-1.445851	-10.797080	 6.025021	-1.596519	-13.207930	 3.948581	-0.420892	-99.450370	 88.445050	-169.938900	 54.403530	 69.669070	-63.785880	-6.782945	-3.987125	-17.477970	 7.356636	-5.133912	-5.321302	-3.734185	-12.805210	 3.105657	-5.213516	-0.193813	 3.566525	-1.378229	 35.397820	-2.634230	 1.110801	 2.184755	 0.949228	-2.813154	 4.722942	 0.380011	 97.574450	 88.236200	 169.492300	-52.653320	 75.692870	 64.608360	-3.056173	-12.314660	 22.664320	-25.849260	-6.028856	 9.593003	-6.969164	-3.627215	-36.366140	 5.070815	-0.697434	-9.399699	-2.350882	 35.473990	 5.254307
-3.560832	-20.012710	 1.048270	-22.823770	 8.896989	 2.446376	 5.133904	-17.871080	 175.425000	-4.744258	-34.006280	-1.426095	-1.687173	 82.821950	-0.816496	-2.326810	 37.216750	-0.203386	-2.499365	-18.563310	-179.298500	-1.826258	-34.684490	-1.175969	-2.720134	 86.056280	 1.568761	 2.396020	 25.340670	-0.064675	-6.564590	 5.618701	-1.400132	-10.728120	 6.211722	-1.477032	-13.017460	 4.201939	-0.385819	-98.888370	 88.372610	-170.554800	 56.087990	 68.777820	-65.528000	-5.921986	-4.032073	-17.955130	 7.355558	-5.125573	-5.323745	-3.528748	-12.134060	 3.580987	-5.213516	-0.193813	 3.566525	-1.378229	 35.397820	-2.634230	 1.098910	 2.185188	 1.010546	-2.715525	 4.864581	 0.421246	 98.121590	 88.295900	 168.870700	-51.980210	 75.586980	 64.061450	-3.135198	-12.271410	 22.582930	-25.979980	-6.029622	 9.591504	-7.001915	-3.689443	-36.404180	 5.070815	-0.697434	-9.399699	-2.350882	 35.473990	 5.254307
-3.562119	-20.013170	 1.048935	-22.712460	 8.926403	 2.366117	 5.115713	-17.737740	 175.453900	-4.692384	-33.734700	-1.387353	-1.733968	 82.781940	-0.741541	-2.327387	 37.154970	-0.201835	-2.519008	-18.496770	-179.298100	-1.689740	-34.794130	-1.107777	-2.741775	 86.057020	 1.693272	 2.395174	 25.614710	-0.058965	-6.599872	 5.667692	-1.478186	-10.665910	 6.394909	-1.409495	-12.816520	 4.433105	-0.353797	-98.261680	 88.297040	-171.269400	 57.348000	 68.047620	-67.053210	-5.050659	-4.143133	-18.258410	 7.659625	-5.121885	-5.322353	-3.338403	-11.469580	 4.031763	-5.213516	-0.193813	 3.566525	-1.378229	 35.397820	-2.634230	 1.083732	 2.267649	 0.978455	-2.633749	 4.942340	 0.689957	 98.987430	 88.405040	 167.945800	-50.992550	 75.499240	 63.165020	-3.115663	-12.230580	 22.574250	-26.043810	-6.030229	 9.590662	-7.032996	-3.718040	-36.463250	 5.070815	-0.697434	-9.399699	-2.350882	 35.473990	 5.254307
-3.563340	-20.013650	 1.049525	-22.469140	 8.941806	 2.276474	 5.108685	-17.660190	 175.461800	-4.537295	-33.560470	-1.293413	-1.687002	 82.757840	-0.665004	-2.327982	 37.090020	-0.200207	-2.548005	-18.412320	-179.299900	-1.544980	-34.781390	-1.040354	-2.771961	 86.047600	 1.823052	 2.394696	 25.762780	-0.055860	-6.672457	 5.691156	-1.529115	-10.636450	 6.640450	-1.376320	-12.616220	 4.729506	-0.315375	-97.816990	 88.271160	-171.830000	 58.126650	 67.617610	-68.215490	-4.726239	-4.199831	-18.563830	 7.799006	-5.116669	-5.323507	-3.255885	-11.045670	 4.233385	-5.213516	-0.193813	 3.566525	-1.378229	 35.397820	-2.634230	 0.992848	 2.292139	 1.046334	-2.530980	 5.121126	 0.697459	 99.830410	 88.492470	 167.040600	-49.699500	 75.415460	 61.949950	-3.005319	-12.192010	 22.635620	-26.054100	-6.030880	 9.589476	-7.061134	-3.703291	-36.547550	 5.070815	-0.697434	-9.399699	-2.350882	 35.473990	 5.254307
-3.564239	-20.013930	 1.050044	-22.176720	 8.923980	 2.166974	 5.108722	-17.594440	 175.466500	-4.341325	-33.453010	-1.178455	-1.710964	 82.751300	-0.472039	-2.328403	 37.045450	-0.199083	-2.629120	-18.315610	-179.258000	-1.397811	-34.747160	-0.995808	-2.820084	 86.033550	 1.937159	 2.394710	 25.758620	-0.055954	-6.720273	 5.812656	-1.482831	-10.584660	 6.909795	-1.378690	-12.403790	 5.048439	-0.275257	-97.655530	 88.292800	-172.078100	 58.657120	 67.304690	-69.090330	-4.921873	-4.138278	-18.985320	 7.517185	-5.106721	-5.328767	-3.371116	-10.976250	 3.964216	-5.213516	-0.193813	 3.566525	-1.378229	 35.397820	-2.634230	 0.880020	 2.264393	 1.019172	-2.438551	 5.339323	 0.661130	 99.937250	 88.475430	 166.865100	-48.393790	 75.320440	 60.763450	-2.836282	-12.166830	 22.758470	-26.031710	-6.031262	 9.588551	-7.087832	-3.658161	-36.651270	 5.070815	-0.697434	-9.399699	-2.350882	 35.473990	 5.254307
-3.564961	-20.014240	 1.050459	-21.899610	 8.906494	 2.075975	 5.082312	-17.483610	 175.478700	-4.173679	-33.359040	-1.094056	-1.751229	 82.759800	-0.308278	-2.328923	 36.988570	-0.197660	-2.735862	-18.197790	-179.258900	-1.232742	-34.704490	-0.957491	-2.876724	 86.025070	 2.051251	 2.394747	 25.746090	-0.056206	-6.704549	 5.975916	-1.398574	-10.471370	 7.200590	-1.410912	-12.165980	 5.391164	-0.233280	-97.762760	 88.357060	-172.025100	 58.962220	 66.907450	-69.608960	-5.069344	-4.081901	-19.627400	 7.164153	-5.091243	-5.336144	-3.362877	-10.796750	 3.986816	-5.213516	-0.193813	 3.566525	-1.378229	 35.397820	-2.634230	 0.749859	 2.152074	 1.098876	-2.343810	 5.625774	 0.368196	 99.649800	 88.408610	 167.089400	-47.026070	 75.222380	 59.523490	-2.578139	-12.139690	 22.949240	-25.942930	-6.031042	 9.589148	-7.117548	-3.595952	-36.776110	 5.070815	-0.697434	-9.399699	-2.350882	 35.473990	 5.254307
